<svg id="svg" version="1.1" xmlns="http://www.w3.org/2000/svg" xmlns:xlink="http://www.w3.org/1999/xlink" width="400" height="400" viewBox="0, 0, 400,400"><g id="svgg"><path id="path0" d="M1.400 260.924 C 0.960 261.186,0.468 261.580,0.306 261.800 C -0.045 262.278,-0.108 371.654,0.243 372.567 C 0.461 373.136,3.279 373.200,27.997 373.200 L 55.508 373.200 56.178 372.178 C 56.906 371.066,56.870 366.576,56.065 358.200 C 55.369 350.962,55.490 273.437,56.200 271.738 C 56.594 270.796,56.800 268.965,56.800 266.413 C 56.800 262.110,56.605 261.718,54.040 260.857 C 52.067 260.194,2.519 260.257,1.400 260.924 " stroke="none" fill="#93e2fc" fill-rule="evenodd"></path><path id="path1" d="M331.159 39.705 C 328.484 41.487,328.215 42.660,328.079 53.100 L 327.959 62.400 318.403 62.400 C 313.147 62.400,308.764 62.535,308.661 62.700 C 308.458 63.027,326.434 62.924,327.900 62.590 L 328.800 62.385 328.800 52.980 C 328.800 42.472,329.006 41.394,331.276 40.010 C 333.275 38.792,336.382 38.900,337.978 40.243 C 340.140 42.062,340.186 42.301,340.400 52.800 L 340.600 62.600 350.400 62.800 C 357.326 62.941,360.464 63.151,361.100 63.514 C 361.595 63.797,362.000 63.936,362.000 63.824 C 362.000 62.728,359.287 62.400,350.220 62.400 L 340.800 62.400 340.799 52.900 C 340.797 42.876,340.688 42.231,338.662 40.205 C 336.976 38.519,333.308 38.274,331.159 39.705 M306.041 64.614 C 304.850 65.971,304.365 67.116,305.200 66.600 C 305.420 66.464,305.600 66.106,305.600 65.805 C 305.600 65.504,306.185 64.797,306.900 64.233 C 307.615 63.670,307.994 63.207,307.741 63.204 C 307.489 63.202,306.724 63.836,306.041 64.614 M362.400 64.400 C 362.400 64.620,362.561 64.800,362.757 64.800 C 363.321 64.800,363.717 66.005,364.009 68.600 L 364.278 71.000 364.338 68.800 C 364.380 67.230,364.170 66.228,363.604 65.300 C 362.798 63.978,362.400 63.680,362.400 64.400 M304.460 68.520 C 304.250 73.849,307.302 75.200,319.551 75.200 L 327.947 75.200 328.073 84.500 C 328.222 95.391,329.201 98.397,332.600 98.397 C 332.820 98.397,332.460 98.063,331.800 97.656 C 328.959 95.901,329.021 96.159,328.800 85.059 L 328.600 75.000 319.000 74.787 C 308.681 74.558,307.964 74.424,306.264 72.404 C 305.205 71.144,304.955 70.486,304.670 68.200 C 304.541 67.166,304.512 67.210,304.460 68.520 M363.189 72.021 C 362.947 72.473,362.175 73.193,361.474 73.620 C 360.698 74.093,360.457 74.398,360.859 74.399 C 361.422 74.400,364.000 71.927,364.000 71.386 C 364.000 70.945,363.595 71.262,363.189 72.021 M349.800 74.789 L 340.600 75.000 340.400 84.600 C 340.179 95.210,340.037 95.872,337.641 97.485 C 336.893 97.988,336.475 98.400,336.710 98.400 C 336.946 98.400,337.699 97.928,338.384 97.352 C 340.611 95.478,340.800 94.463,340.800 84.351 L 340.800 75.200 349.700 75.172 C 354.595 75.156,358.960 74.989,359.400 74.800 C 359.840 74.611,359.930 74.483,359.600 74.517 C 359.270 74.550,354.860 74.672,349.800 74.789 M269.668 78.400 C 269.662 78.950,269.811 79.760,270.000 80.200 L 270.344 81.000 270.332 80.200 C 270.326 79.760,270.176 78.950,270.000 78.400 L 269.680 77.400 269.668 78.400 M270.644 83.400 C 270.973 84.871,271.202 85.190,271.194 84.167 C 271.191 83.745,271.005 83.130,270.782 82.800 C 270.485 82.362,270.448 82.524,270.644 83.400 M275.203 96.700 C 275.206 97.057,276.794 99.508,276.797 99.161 C 276.799 99.030,276.517 98.355,276.171 97.661 C 275.562 96.441,275.197 96.079,275.203 96.700 M333.905 98.683 C 334.402 98.779,335.122 98.775,335.505 98.675 C 335.887 98.575,335.480 98.496,334.600 98.501 C 333.720 98.505,333.407 98.587,333.905 98.683 M277.813 101.600 C 278.617 103.060,282.819 109.164,283.170 109.381 C 283.570 109.629,278.590 102.114,277.880 101.400 C 277.616 101.135,277.594 101.202,277.813 101.600 M285.205 111.782 C 286.846 113.731,287.230 114.104,287.412 113.922 C 287.507 113.826,286.826 113.040,285.898 112.174 C 284.787 111.137,284.550 111.003,285.205 111.782 M289.234 115.900 C 289.252 116.065,290.017 116.822,290.934 117.582 L 292.600 118.963 291.019 117.282 C 289.393 115.552,289.176 115.384,289.234 115.900 M295.200 120.976 C 295.200 121.086,296.505 122.049,298.100 123.117 C 301.399 125.326,302.401 125.920,301.800 125.313 C 301.169 124.676,295.200 120.753,295.200 120.976 M302.800 126.020 C 304.187 126.961,304.978 127.235,304.000 126.436 C 303.450 125.986,302.820 125.617,302.600 125.615 C 302.380 125.613,302.470 125.796,302.800 126.020 M323.505 133.483 C 324.002 133.579,324.722 133.575,325.105 133.475 C 325.487 133.375,325.080 133.296,324.200 133.301 C 323.320 133.305,323.007 133.387,323.505 133.483 M344.100 133.476 C 344.485 133.576,345.115 133.576,345.500 133.476 C 345.885 133.375,345.570 133.293,344.800 133.293 C 344.030 133.293,343.715 133.375,344.100 133.476 M327.676 134.060 C 328.184 134.203,331.300 134.320,334.600 134.320 C 337.900 134.320,341.016 134.203,341.524 134.060 C 342.032 133.917,338.916 133.800,334.600 133.800 C 330.284 133.800,327.168 133.917,327.676 134.060 M213.400 149.600 C 213.108 150.073,213.499 150.073,214.600 149.600 C 215.371 149.269,215.369 149.255,214.524 149.228 C 214.042 149.213,213.536 149.380,213.400 149.600 M217.400 149.600 C 218.501 150.073,218.892 150.073,218.600 149.600 C 218.464 149.380,217.958 149.213,217.476 149.228 C 216.631 149.255,216.629 149.269,217.400 149.600 M211.528 151.100 C 210.249 152.477,205.612 160.471,206.713 159.400 C 207.096 159.027,207.416 158.491,209.633 154.500 C 210.092 153.675,211.000 152.325,211.652 151.500 C 213.044 149.739,212.981 149.536,211.528 151.100 M220.324 151.400 C 220.975 152.280,222.278 154.440,223.221 156.200 C 226.028 161.437,226.455 162.181,226.900 162.600 C 227.134 162.820,226.632 161.740,225.785 160.200 C 224.939 158.660,223.695 156.351,223.023 155.070 C 222.350 153.788,221.202 152.078,220.471 151.270 L 219.142 149.800 220.324 151.400 M205.104 161.682 C 202.716 165.810,202.652 166.528,205.022 162.592 C 205.787 161.321,206.342 160.209,206.255 160.122 C 206.168 160.035,205.650 160.737,205.104 161.682 M227.200 163.319 C 227.200 163.458,227.650 164.388,228.200 165.386 C 228.750 166.384,229.669 168.055,230.242 169.100 C 233.037 174.195,234.084 176.000,234.245 176.000 C 234.467 176.000,233.823 174.757,230.341 168.465 C 227.543 163.408,227.200 162.847,227.200 163.319 M202.186 166.900 L 201.552 168.200 202.367 167.200 C 203.152 166.237,203.408 165.600,203.010 165.600 C 202.906 165.600,202.535 166.185,202.186 166.900 M170.232 168.754 C 171.587 169.581,173.589 171.853,174.437 173.526 C 175.138 174.911,178.781 180.478,179.328 181.000 C 179.558 181.220,179.408 180.860,178.993 180.200 C 178.579 179.540,177.529 177.830,176.660 176.400 C 173.650 171.443,171.970 169.205,170.808 168.604 C 169.158 167.751,168.758 167.855,170.232 168.754 M214.234 169.850 C 212.831 172.361,212.939 172.640,214.408 170.300 C 215.841 168.019,216.052 167.981,216.943 169.850 C 217.323 170.647,217.724 171.209,217.833 171.100 C 218.171 170.763,216.354 168.000,215.795 168.000 C 215.505 168.000,214.803 168.833,214.234 169.850 M200.614 169.435 C 200.241 170.004,200.027 170.561,200.139 170.672 C 200.250 170.783,200.629 170.318,200.981 169.637 C 201.759 168.133,201.544 168.015,200.614 169.435 M162.902 170.203 C 162.266 170.975,161.383 172.284,160.941 173.113 C 160.499 173.942,159.817 175.155,159.426 175.810 C 158.832 176.805,158.825 176.869,159.387 176.200 C 159.756 175.760,160.692 174.320,161.466 173.000 C 162.240 171.680,163.249 170.195,163.707 169.700 C 164.165 169.205,164.431 168.800,164.299 168.800 C 164.167 168.800,163.538 169.431,162.902 170.203 M199.014 172.235 C 198.641 172.804,198.427 173.361,198.539 173.472 C 198.650 173.583,199.029 173.118,199.381 172.437 C 200.159 170.933,199.944 170.815,199.014 172.235 M219.830 175.100 C 221.826 178.787,222.800 180.361,222.800 179.901 C 222.800 179.749,222.471 179.034,222.069 178.312 C 221.667 177.590,220.662 175.785,219.835 174.300 C 219.008 172.815,218.242 171.600,218.133 171.600 C 218.024 171.600,218.788 173.175,219.830 175.100 M212.082 173.700 C 211.651 174.415,210.849 175.810,210.299 176.800 C 209.750 177.790,208.000 180.850,206.411 183.600 C 204.822 186.350,203.259 189.140,202.937 189.800 L 202.352 191.000 203.167 190.000 C 203.615 189.450,203.986 188.882,203.991 188.737 C 203.996 188.593,205.282 186.253,206.850 183.537 C 208.417 180.822,210.057 177.970,210.495 177.200 C 210.933 176.430,211.738 175.035,212.284 174.100 C 212.829 173.165,213.184 172.400,213.071 172.400 C 212.958 172.400,212.513 172.985,212.082 173.700 M197.446 174.986 C 197.091 175.528,196.800 176.060,196.800 176.168 C 196.800 176.276,196.235 177.318,195.544 178.482 C 192.507 183.603,190.598 187.100,191.113 186.600 C 191.339 186.380,191.902 185.525,192.362 184.700 C 193.622 182.445,194.556 180.823,195.935 178.499 C 198.178 174.716,199.240 172.248,197.446 174.986 M234.450 176.601 C 234.849 177.667,237.338 181.995,237.474 181.859 C 237.654 181.679,235.286 177.195,234.696 176.600 C 234.432 176.333,234.350 176.334,234.450 176.601 M158.024 178.118 C 157.723 178.603,157.215 179.405,156.893 179.900 C 156.571 180.395,156.395 180.800,156.501 180.800 C 156.783 180.800,158.886 177.553,158.715 177.381 C 158.635 177.302,158.324 177.633,158.024 178.118 M286.100 179.900 C 293.085 179.961,304.515 179.961,311.500 179.900 C 318.485 179.839,312.770 179.788,298.800 179.788 C 284.830 179.788,279.115 179.839,286.100 179.900 M270.530 180.645 C 269.369 181.217,268.092 182.763,266.850 185.100 C 265.995 186.710,266.738 186.048,267.777 184.276 C 269.097 182.023,270.281 180.956,272.000 180.469 C 272.790 180.245,273.052 180.060,272.600 180.045 C 272.160 180.030,271.228 180.300,270.530 180.645 M325.488 180.496 C 326.197 180.773,327.159 181.328,327.626 181.729 C 328.094 182.129,328.559 182.374,328.661 182.272 C 328.984 181.950,326.599 180.463,325.376 180.223 C 324.218 179.996,324.220 180.000,325.488 180.496 M224.083 182.800 C 224.849 184.230,225.834 186.030,226.270 186.800 C 226.707 187.570,227.838 189.640,228.784 191.400 C 229.730 193.160,230.686 194.780,230.908 195.000 C 231.275 195.364,228.615 190.214,226.673 186.800 C 226.235 186.030,225.352 184.410,224.711 183.200 C 224.071 181.990,223.353 180.820,223.118 180.600 C 222.882 180.380,223.316 181.370,224.083 182.800 M155.570 182.066 C 155.298 182.580,154.813 183.405,154.492 183.900 C 154.171 184.395,153.995 184.800,154.101 184.800 C 154.436 184.800,156.469 181.536,156.262 181.329 C 156.154 181.220,155.842 181.552,155.570 182.066 M179.600 181.805 C 179.600 182.099,183.285 187.600,183.482 187.600 C 183.674 187.600,183.579 187.433,181.493 184.100 C 180.059 181.809,179.600 181.252,179.600 181.805 M238.999 185.000 C 239.829 186.540,241.036 188.790,241.681 190.000 C 242.326 191.210,243.047 192.380,243.282 192.600 C 243.518 192.820,243.031 191.740,242.201 190.200 C 241.371 188.660,240.164 186.410,239.519 185.200 C 238.874 183.990,238.153 182.820,237.918 182.600 C 237.682 182.380,238.169 183.460,238.999 185.000 M151.840 188.240 C 150.821 189.935,150.052 191.385,150.130 191.464 C 150.209 191.542,151.115 190.228,152.144 188.544 C 153.173 186.860,153.942 185.409,153.854 185.320 C 153.765 185.231,152.859 186.545,151.840 188.240 M166.853 186.700 L 166.378 187.800 167.140 186.835 L 167.902 185.869 169.004 187.535 C 170.376 189.608,170.789 189.732,169.554 187.700 C 168.091 185.293,167.548 185.092,166.853 186.700 M262.788 191.900 C 260.981 194.925,259.147 198.030,258.712 198.800 L 257.921 200.200 258.742 199.200 C 259.194 198.650,259.797 197.750,260.082 197.200 C 260.367 196.650,261.705 194.380,263.056 192.156 C 265.902 187.469,266.496 186.400,266.250 186.400 C 266.152 186.400,264.594 188.875,262.788 191.900 M189.977 188.066 C 189.709 188.580,189.048 189.765,188.507 190.700 C 187.966 191.635,187.622 192.400,187.743 192.400 C 188.075 192.400,190.860 187.527,190.649 187.316 C 190.548 187.214,190.246 187.552,189.977 188.066 M165.053 189.591 C 164.053 191.102,163.615 192.196,164.336 191.380 C 164.892 190.752,166.479 188.000,166.286 188.000 C 166.187 188.000,165.632 188.716,165.053 189.591 M184.438 189.500 C 186.000 192.096,186.841 193.200,187.256 193.200 C 187.477 193.200,187.404 192.946,187.094 192.637 C 186.784 192.327,185.942 191.157,185.224 190.037 C 183.717 187.689,183.090 187.261,184.438 189.500 M327.949 189.861 C 327.647 190.225,326.860 190.758,326.200 191.046 C 325.476 191.361,325.275 191.575,325.694 191.584 C 326.316 191.598,329.353 189.240,328.749 189.212 C 328.611 189.205,328.251 189.498,327.949 189.861 M171.015 190.700 C 172.356 192.785,172.800 193.377,172.800 193.080 C 172.800 192.696,170.755 189.600,170.501 189.600 C 170.395 189.600,170.626 190.095,171.015 190.700 M201.093 192.900 C 199.687 195.331,199.040 196.663,199.491 196.200 C 200.035 195.640,202.501 191.200,202.267 191.200 C 202.162 191.200,201.634 191.965,201.093 192.900 M289.129 191.900 C 295.799 191.961,306.599 191.961,313.129 191.900 C 319.658 191.838,314.200 191.788,301.000 191.788 C 287.800 191.788,282.458 191.838,289.129 191.900 M148.863 193.200 L 147.976 194.400 129.926 194.400 L 111.876 194.400 110.495 195.453 C 106.171 198.751,108.219 206.545,113.359 206.354 C 114.577 206.309,114.573 206.303,113.134 206.023 C 109.202 205.257,107.316 201.404,109.068 197.713 C 110.477 194.744,110.049 194.803,130.030 194.801 L 147.861 194.800 148.671 193.900 C 149.536 192.939,150.143 192.000,149.899 192.000 C 149.817 192.000,149.351 192.540,148.863 193.200 M162.653 193.591 C 162.074 194.467,161.600 195.289,161.600 195.419 C 161.600 195.549,161.060 196.441,160.400 197.400 C 159.740 198.359,159.200 199.257,159.200 199.394 C 159.200 201.155,154.388 205.966,152.538 206.054 C 151.507 206.104,151.490 206.126,152.360 206.290 C 154.691 206.730,156.179 205.197,160.596 197.800 C 161.647 196.040,162.858 194.015,163.286 193.300 C 164.386 191.465,163.918 191.681,162.653 193.591 M243.606 193.250 C 243.597 193.605,245.633 197.200,245.842 197.200 C 245.938 197.200,245.660 196.525,245.224 195.700 C 244.278 193.911,243.615 192.906,243.606 193.250 M174.257 195.900 C 175.072 197.165,176.891 200.045,178.298 202.300 C 179.706 204.555,180.950 206.400,181.062 206.400 C 181.313 206.400,180.298 204.706,176.530 198.838 C 174.918 196.329,173.600 194.124,173.600 193.938 C 173.600 193.752,173.414 193.600,173.188 193.600 C 172.961 193.600,173.442 194.635,174.257 195.900 M231.209 195.900 C 231.214 196.065,231.585 196.650,232.033 197.200 L 232.848 198.200 232.214 196.900 C 231.611 195.665,231.189 195.245,231.209 195.900 M274.153 196.100 C 272.776 198.436,272.686 198.635,273.387 197.800 C 274.200 196.832,274.900 195.600,274.638 195.600 C 274.533 195.600,274.315 195.825,274.153 196.100 M198.246 197.786 C 197.891 198.328,197.600 198.885,197.600 199.024 C 197.600 199.163,197.220 199.810,196.756 200.461 C 196.292 201.113,196.000 201.734,196.108 201.841 C 196.283 202.016,197.501 200.114,198.759 197.700 C 199.386 196.497,199.054 196.553,198.246 197.786 M246.009 197.900 C 246.014 198.065,246.385 198.650,246.833 199.200 L 247.648 200.200 247.014 198.900 C 246.411 197.665,245.989 197.245,246.009 197.900 M272.024 199.718 C 271.723 200.203,271.215 201.005,270.893 201.500 C 270.571 201.995,270.395 202.400,270.501 202.400 C 270.783 202.400,272.886 199.153,272.715 198.981 C 272.635 198.902,272.324 199.233,272.024 199.718 M233.609 200.300 C 233.614 200.465,233.985 201.050,234.433 201.600 L 235.248 202.600 234.614 201.300 C 234.011 200.065,233.589 199.645,233.609 200.300 M257.170 201.266 C 256.898 201.780,256.413 202.605,256.092 203.100 C 255.716 203.680,255.667 204.000,255.954 204.000 C 256.199 204.000,256.400 203.803,256.400 203.562 C 256.400 203.321,256.780 202.590,257.244 201.939 C 257.708 201.287,257.992 200.659,257.876 200.543 C 257.760 200.427,257.442 200.752,257.170 201.266 M248.409 202.300 C 248.414 202.465,248.785 203.050,249.233 203.600 L 250.048 204.600 249.414 203.300 C 248.811 202.065,248.389 201.645,248.409 202.300 M195.014 203.435 C 194.641 204.004,194.405 204.538,194.489 204.622 C 194.573 204.707,194.958 204.241,195.344 203.588 C 196.206 202.128,195.948 202.009,195.014 203.435 M269.453 204.100 L 268.733 205.400 269.558 204.400 C 270.289 203.513,270.614 202.800,270.286 202.800 C 270.224 202.800,269.849 203.385,269.453 204.100 M237.020 206.440 C 237.589 207.562,238.134 208.399,238.233 208.301 C 238.423 208.110,236.451 204.400,236.159 204.400 C 236.064 204.400,236.452 205.318,237.020 206.440 M254.586 205.700 L 253.952 207.000 254.767 206.000 C 255.552 205.037,255.808 204.400,255.410 204.400 C 255.306 204.400,254.935 204.985,254.586 205.700 M193.446 206.186 C 193.091 206.728,192.800 207.344,192.800 207.555 C 192.800 207.765,192.035 208.604,191.100 209.418 C 190.165 210.232,189.760 210.711,190.200 210.483 C 191.320 209.903,192.988 208.039,193.765 206.500 C 194.540 204.964,194.362 204.788,193.446 206.186 M267.786 206.900 L 267.152 208.200 267.967 207.200 C 268.752 206.237,269.008 205.600,268.610 205.600 C 268.506 205.600,268.135 206.185,267.786 206.900 M251.378 207.475 C 251.717 208.176,252.152 208.846,252.344 208.965 C 252.776 209.232,254.226 207.693,253.874 207.340 C 253.733 207.200,253.505 207.381,253.367 207.743 C 253.112 208.406,252.000 208.677,252.000 208.076 C 252.000 207.899,251.721 207.404,251.381 206.976 C 250.821 206.275,250.821 206.323,251.378 207.475 M181.571 207.400 C 182.242 208.693,182.923 209.414,184.200 210.184 L 185.400 210.907 184.128 209.847 C 183.429 209.264,182.474 208.295,182.006 207.693 C 181.539 207.092,181.343 206.960,181.571 207.400 M239.440 210.802 C 240.039 211.903,240.593 212.740,240.671 212.663 C 240.843 212.490,238.808 208.800,238.541 208.800 C 238.436 208.800,238.840 209.701,239.440 210.802 M186.505 211.087 C 187.114 211.179,188.014 211.177,188.505 211.082 C 188.997 210.987,188.500 210.911,187.400 210.914 C 186.300 210.917,185.897 210.995,186.505 211.087 M264.614 212.235 C 264.241 212.804,264.027 213.361,264.139 213.472 C 264.250 213.583,264.629 213.118,264.981 212.437 C 265.759 210.933,265.544 210.815,264.614 212.235 M240.888 213.400 C 242.399 216.337,246.504 223.600,246.653 223.600 C 246.822 223.600,245.106 220.291,242.297 215.200 C 241.612 213.958,240.338 212.331,240.888 213.400 M262.653 215.591 C 261.653 217.102,261.215 218.196,261.936 217.380 C 262.492 216.752,264.079 214.000,263.886 214.000 C 263.787 214.000,263.232 214.716,262.653 215.591 M260.253 219.591 C 259.674 220.467,259.200 221.289,259.200 221.419 C 259.200 222.303,256.082 226.138,255.043 226.532 C 254.626 226.690,254.386 226.919,254.508 227.042 C 255.252 227.785,257.617 224.985,260.541 219.900 C 261.870 217.589,261.699 217.406,260.253 219.591 M246.811 224.259 C 246.797 224.839,249.464 227.204,250.114 227.188 C 250.381 227.181,250.240 226.981,249.800 226.742 C 249.360 226.504,248.510 225.745,247.911 225.055 C 247.312 224.365,246.817 224.006,246.811 224.259 M251.500 227.482 C 251.995 227.578,252.805 227.578,253.300 227.482 C 253.795 227.387,253.390 227.309,252.400 227.309 C 251.410 227.309,251.005 227.387,251.500 227.482 M168.000 254.047 C 162.345 254.367,155.835 255.181,149.200 256.397 C 147.770 256.660,145.700 257.030,144.600 257.221 C 143.500 257.412,141.610 257.754,140.400 257.980 C 139.190 258.207,137.120 258.576,135.800 258.800 C 134.480 259.024,132.410 259.392,131.200 259.617 C 127.619 260.283,121.853 261.273,117.600 261.951 C 112.560 262.754,110.175 263.165,107.800 263.640 C 106.480 263.905,102.994 264.172,100.054 264.235 C 97.114 264.298,94.414 264.479,94.054 264.637 C 93.694 264.796,92.365 265.077,91.100 265.263 C 88.890 265.587,86.911 265.908,81.500 266.822 C 80.125 267.054,77.965 267.340,76.700 267.458 C 75.435 267.575,74.400 267.835,74.400 268.036 C 74.400 268.236,73.421 268.400,72.224 268.400 C 71.027 268.400,69.936 268.580,69.800 268.800 C 69.664 269.020,68.494 269.200,67.200 269.200 C 65.906 269.200,64.736 269.380,64.600 269.600 C 64.464 269.820,63.474 270.000,62.400 270.000 C 61.326 270.000,60.336 270.180,60.200 270.400 C 60.064 270.620,59.173 270.800,58.221 270.800 C 56.581 270.800,56.477 270.869,56.258 272.100 C 55.930 273.948,55.806 361.140,56.131 361.465 C 56.279 361.612,56.400 358.103,56.400 353.667 C 56.400 347.475,56.516 345.602,56.900 345.609 C 57.175 345.615,58.750 345.987,60.400 346.437 C 62.050 346.887,64.345 347.513,65.500 347.828 C 68.031 348.518,71.686 349.526,73.600 350.061 C 74.370 350.277,75.630 350.609,76.400 350.800 C 77.170 350.991,78.430 351.323,79.200 351.539 C 81.117 352.075,84.754 353.078,87.400 353.800 C 88.610 354.130,90.590 354.670,91.800 355.000 C 93.010 355.330,94.945 355.858,96.100 356.173 C 97.255 356.488,99.568 357.113,101.240 357.563 C 102.912 358.012,107.592 359.283,111.640 360.387 C 120.867 362.903,127.392 364.679,131.000 365.657 C 132.540 366.075,134.430 366.589,135.200 366.800 C 135.970 367.011,137.950 367.551,139.600 368.000 C 141.250 368.449,143.230 368.989,144.000 369.200 C 144.770 369.411,146.750 369.948,148.400 370.394 C 150.050 370.840,151.940 371.366,152.600 371.564 C 153.260 371.762,156.320 372.586,159.400 373.394 C 162.480 374.202,166.530 375.320,168.400 375.878 C 173.460 377.387,178.626 378.647,182.000 379.194 C 183.650 379.461,185.978 379.842,187.173 380.040 C 189.999 380.508,201.009 380.505,203.480 380.035 C 204.536 379.835,206.750 379.457,208.400 379.195 C 212.188 378.594,217.400 377.236,224.800 374.921 C 227.990 373.923,231.140 372.969,231.800 372.802 C 232.460 372.634,234.890 371.868,237.200 371.098 C 241.640 369.619,255.236 365.231,265.600 361.931 C 269.010 360.845,272.790 359.624,274.000 359.217 C 275.210 358.809,279.440 357.453,283.400 356.202 C 287.360 354.952,292.130 353.425,294.000 352.811 C 295.870 352.196,300.370 350.751,304.000 349.600 C 307.630 348.449,312.130 347.004,314.000 346.389 C 315.870 345.775,320.640 344.247,324.600 342.995 C 342.713 337.268,346.067 335.450,350.410 329.000 C 351.151 327.900,352.037 326.778,352.379 326.508 C 352.791 326.181,352.859 325.912,352.579 325.708 C 352.347 325.538,351.651 324.725,351.031 323.900 C 350.412 323.075,349.738 322.400,349.534 322.400 C 349.330 322.400,348.715 321.952,348.168 321.404 C 347.620 320.856,346.728 320.297,346.186 320.161 C 345.644 320.025,345.200 319.753,345.200 319.557 C 345.200 319.360,344.750 319.200,344.200 319.200 C 343.650 319.200,343.200 319.020,343.200 318.800 C 343.200 318.580,342.606 318.400,341.880 318.400 C 341.154 318.400,340.371 318.211,340.139 317.979 C 339.355 317.195,324.337 317.967,323.420 318.839 C 323.211 319.037,322.534 319.200,321.915 319.200 C 321.296 319.200,320.477 319.358,320.095 319.551 C 318.702 320.255,316.509 320.800,315.072 320.800 C 314.262 320.800,313.600 320.980,313.600 321.200 C 313.600 321.420,312.790 321.600,311.800 321.600 C 310.810 321.600,310.000 321.748,310.000 321.929 C 310.000 322.109,309.055 322.299,307.900 322.351 C 306.745 322.402,305.740 322.614,305.667 322.822 C 305.593 323.030,304.659 323.200,303.590 323.200 C 302.522 323.200,301.536 323.380,301.400 323.600 C 301.264 323.820,300.364 324.000,299.400 324.000 C 298.436 324.000,297.536 324.180,297.400 324.400 C 297.264 324.620,296.353 324.800,295.376 324.800 C 294.399 324.800,293.600 324.980,293.600 325.200 C 293.600 325.420,292.801 325.600,291.824 325.600 C 290.847 325.600,289.936 325.780,289.800 326.000 C 289.664 326.220,288.674 326.400,287.600 326.400 C 286.526 326.400,285.552 326.553,285.436 326.741 C 285.321 326.928,284.095 327.203,282.713 327.351 C 279.236 327.723,278.581 327.832,275.475 328.561 C 273.977 328.912,272.142 329.200,271.399 329.200 C 270.655 329.200,269.936 329.380,269.800 329.600 C 269.664 329.820,268.930 330.000,268.168 330.000 C 267.356 330.000,266.085 330.442,265.092 331.070 C 263.426 332.124,262.153 332.515,258.200 333.185 C 257.100 333.371,254.940 333.794,253.400 334.124 C 247.435 335.401,245.857 335.674,241.490 336.181 C 235.616 336.864,229.642 336.382,219.400 334.399 C 216.980 333.931,214.100 333.394,213.000 333.206 C 209.905 332.677,206.398 332.036,204.200 331.597 C 203.100 331.377,201.120 331.018,199.800 330.800 C 198.480 330.582,196.500 330.221,195.400 329.998 C 194.300 329.775,192.410 329.420,191.200 329.209 C 189.990 328.999,188.010 328.635,186.800 328.400 C 185.590 328.166,183.790 327.818,182.800 327.627 C 181.810 327.436,179.920 327.066,178.600 326.803 C 177.280 326.541,175.480 326.198,174.600 326.041 C 167.969 324.862,162.400 318.424,162.400 311.938 C 162.400 310.145,163.734 305.348,164.434 304.620 C 165.011 304.021,164.869 303.089,163.912 301.175 C 162.635 298.624,162.655 292.678,163.949 289.813 C 166.668 283.793,172.146 280.725,178.600 281.608 C 181.699 282.031,185.647 282.545,190.800 283.196 C 192.670 283.432,195.460 283.790,197.000 283.992 C 198.540 284.194,201.330 284.545,203.200 284.771 C 205.070 284.998,208.400 285.409,210.600 285.684 C 225.137 287.500,234.658 285.109,240.052 278.287 C 241.575 276.359,241.619 276.054,240.664 274.006 C 239.723 271.989,237.157 269.121,234.379 266.984 C 231.888 265.067,226.211 262.013,225.124 262.005 C 224.752 262.002,224.351 261.844,224.233 261.654 C 224.116 261.464,223.250 261.179,222.310 261.021 C 218.483 260.379,214.074 259.589,210.200 258.850 C 209.100 258.640,207.030 258.258,205.600 258.000 C 204.170 257.742,202.100 257.360,201.000 257.150 C 198.943 256.758,196.209 256.279,193.400 255.820 C 192.520 255.676,191.170 255.400,190.400 255.206 C 185.975 254.091,176.171 253.584,168.000 254.047 " stroke="none" fill="#fbd3a3" fill-rule="evenodd"></path><path id="path2" d="M324.000 3.200 C 324.000 3.420,323.100 3.600,322.000 3.600 C 320.900 3.600,320.000 3.780,320.000 4.000 C 320.000 4.220,319.280 4.400,318.400 4.400 C 317.520 4.400,316.800 4.580,316.800 4.800 C 316.800 5.020,316.271 5.200,315.624 5.200 C 314.977 5.200,314.336 5.380,314.200 5.600 C 314.064 5.820,313.423 6.000,312.776 6.000 C 312.129 6.000,311.600 6.180,311.600 6.400 C 311.600 6.620,311.240 6.800,310.800 6.800 C 310.360 6.800,310.000 6.980,310.000 7.200 C 310.000 7.420,309.460 7.600,308.800 7.600 C 308.140 7.600,307.600 7.780,307.600 8.000 C 307.600 8.220,307.240 8.400,306.800 8.400 C 306.360 8.400,306.000 8.580,306.000 8.800 C 306.000 9.020,305.640 9.200,305.200 9.200 C 304.760 9.200,304.400 9.380,304.400 9.600 C 304.400 9.820,304.113 10.000,303.762 10.000 C 303.056 10.000,300.677 11.227,300.467 11.700 C 300.393 11.865,300.112 12.000,299.842 12.000 C 299.572 12.000,299.002 12.315,298.575 12.700 C 298.149 13.085,297.311 13.652,296.714 13.960 C 296.116 14.268,295.722 14.673,295.837 14.860 C 295.953 15.047,295.666 15.200,295.200 15.200 C 294.734 15.200,294.464 15.380,294.600 15.600 C 294.736 15.820,294.639 16.000,294.384 16.000 C 294.129 16.000,293.417 16.540,292.800 17.200 C 292.183 17.860,291.504 18.400,291.290 18.400 C 290.773 18.400,285.600 23.535,285.600 24.048 C 285.600 24.267,285.447 24.353,285.260 24.237 C 285.073 24.122,284.668 24.512,284.360 25.105 C 284.052 25.697,283.260 26.733,282.600 27.407 C 281.093 28.946,279.217 31.310,279.207 31.682 C 279.203 31.837,278.750 32.628,278.200 33.438 C 277.650 34.249,277.200 35.164,277.200 35.473 C 277.200 35.781,276.840 36.420,276.400 36.892 C 275.960 37.364,275.600 37.987,275.600 38.275 C 275.600 38.564,275.420 38.800,275.200 38.800 C 274.980 38.800,274.800 39.149,274.800 39.576 C 274.800 40.003,274.620 40.464,274.400 40.600 C 274.180 40.736,274.000 41.287,274.000 41.824 C 274.000 42.361,273.820 42.800,273.600 42.800 C 273.380 42.800,273.200 43.149,273.200 43.576 C 273.200 44.003,273.020 44.464,272.800 44.600 C 272.580 44.736,272.400 45.197,272.400 45.624 C 272.400 46.051,272.220 46.400,272.000 46.400 C 271.780 46.400,271.600 46.929,271.600 47.576 C 271.600 48.223,271.420 48.864,271.200 49.000 C 270.980 49.136,270.800 49.676,270.800 50.200 C 270.800 50.724,270.620 51.264,270.400 51.400 C 270.180 51.536,270.000 52.447,270.000 53.424 C 270.000 54.401,269.820 55.200,269.600 55.200 C 269.378 55.200,269.200 56.267,269.200 57.600 C 269.200 58.933,269.022 60.000,268.800 60.000 C 268.547 60.000,268.400 62.867,268.400 67.800 C 268.400 74.052,268.506 75.600,268.936 75.600 C 269.289 75.600,269.639 76.588,269.964 78.500 C 270.234 80.095,270.623 82.075,270.828 82.900 C 271.882 87.149,272.497 89.239,273.240 91.100 C 273.438 91.595,273.758 92.405,273.952 92.900 C 276.900 100.435,282.634 109.048,288.695 115.043 C 292.382 118.689,301.499 125.575,302.685 125.609 C 302.858 125.614,303.450 125.970,304.000 126.400 C 304.550 126.830,305.315 127.186,305.700 127.191 C 306.085 127.196,306.400 127.380,306.400 127.600 C 306.400 127.820,306.660 128.000,306.977 128.000 C 307.295 128.000,308.150 128.341,308.877 128.758 C 317.798 133.867,337.991 135.506,350.400 132.129 C 351.610 131.800,353.140 131.387,353.800 131.211 C 355.108 130.864,356.109 130.526,357.500 129.964 C 357.995 129.764,358.805 129.439,359.300 129.242 C 362.410 128.007,368.505 124.813,368.733 124.300 C 368.807 124.135,369.544 124.000,370.371 124.000 C 371.368 124.000,372.120 123.730,372.600 123.200 C 372.998 122.760,373.546 122.400,373.817 122.400 C 374.088 122.400,374.735 121.862,375.255 121.204 C 375.775 120.546,376.403 120.006,376.651 120.004 C 377.223 119.999,385.600 111.748,385.600 111.189 C 385.600 110.960,386.219 110.154,386.976 109.398 C 387.732 108.641,389.124 106.712,390.068 105.111 C 391.012 103.510,391.923 102.140,392.092 102.067 C 392.262 101.993,392.400 101.588,392.400 101.167 C 392.400 100.745,392.580 100.400,392.800 100.400 C 393.020 100.400,393.200 100.040,393.200 99.600 C 393.200 99.160,393.380 98.800,393.600 98.800 C 393.820 98.800,394.000 98.440,394.000 98.000 C 394.000 97.560,394.180 97.200,394.400 97.200 C 394.620 97.200,394.800 96.840,394.800 96.400 C 394.800 95.960,394.980 95.600,395.200 95.600 C 395.420 95.600,395.600 95.060,395.600 94.400 C 395.600 93.740,395.780 93.200,396.000 93.200 C 396.220 93.200,396.400 92.840,396.400 92.400 C 396.400 91.960,396.580 91.600,396.800 91.600 C 397.020 91.600,397.200 91.071,397.200 90.424 C 397.200 89.777,397.380 89.136,397.600 89.000 C 397.820 88.864,398.000 88.223,398.000 87.576 C 398.000 86.929,398.180 86.400,398.400 86.400 C 398.620 86.400,398.800 85.695,398.800 84.833 C 398.800 83.936,399.013 83.195,399.300 83.100 C 399.688 82.971,399.800 79.728,399.800 68.687 C 399.800 57.823,399.681 54.321,399.300 53.940 C 399.025 53.665,398.800 52.857,398.800 52.144 C 398.800 51.431,398.620 50.736,398.400 50.600 C 398.180 50.464,398.000 49.823,398.000 49.176 C 398.000 48.529,397.820 48.000,397.600 48.000 C 397.380 48.000,397.200 47.674,397.200 47.275 C 397.200 46.876,396.840 45.805,396.400 44.894 C 395.960 43.984,395.600 42.960,395.600 42.619 C 395.600 42.279,395.420 42.000,395.200 42.000 C 394.980 42.000,394.800 41.640,394.800 41.200 C 394.800 40.760,394.620 40.400,394.400 40.400 C 394.180 40.400,394.000 40.040,394.000 39.600 C 394.000 39.160,393.820 38.800,393.600 38.800 C 393.380 38.800,393.200 38.440,393.200 38.000 C 393.200 37.560,393.020 37.200,392.800 37.200 C 392.580 37.200,392.400 36.840,392.400 36.400 C 392.400 35.960,392.220 35.600,392.000 35.600 C 391.780 35.600,391.600 35.247,391.600 34.816 C 391.600 34.384,391.206 33.664,390.725 33.216 C 390.243 32.767,390.004 32.400,390.194 32.400 C 390.384 32.400,390.171 31.995,389.721 31.500 C 389.270 31.005,388.834 30.402,388.751 30.161 C 388.214 28.598,376.788 16.800,375.812 16.800 C 375.475 16.800,375.200 16.646,375.200 16.458 C 375.200 16.060,370.937 12.800,370.417 12.800 C 370.224 12.800,370.007 12.643,369.933 12.451 C 369.753 11.979,365.781 10.000,365.013 10.000 C 364.676 10.000,364.400 9.820,364.400 9.600 C 364.400 9.380,364.040 9.200,363.600 9.200 C 363.160 9.200,362.800 9.020,362.800 8.800 C 362.800 8.580,362.440 8.400,362.000 8.400 C 361.560 8.400,361.200 8.220,361.200 8.000 C 361.200 7.780,360.840 7.600,360.400 7.600 C 359.960 7.600,359.600 7.420,359.600 7.200 C 359.600 6.980,359.161 6.800,358.624 6.800 C 358.087 6.800,357.536 6.620,357.400 6.400 C 357.264 6.180,356.713 6.000,356.176 6.000 C 355.639 6.000,355.200 5.820,355.200 5.600 C 355.200 5.380,354.671 5.200,354.024 5.200 C 353.377 5.200,352.736 5.020,352.600 4.800 C 352.464 4.580,351.744 4.400,351.000 4.400 C 350.256 4.400,349.536 4.220,349.400 4.000 C 349.264 3.780,348.173 3.600,346.976 3.600 C 345.779 3.600,344.800 3.420,344.800 3.200 C 344.800 2.944,341.067 2.800,334.400 2.800 C 327.733 2.800,324.000 2.944,324.000 3.200 M337.318 39.263 C 340.509 40.971,340.797 42.100,340.799 52.900 L 340.800 62.400 350.265 62.400 C 362.380 62.400,364.400 63.286,364.400 68.600 C 364.400 74.099,361.907 75.200,349.454 75.200 L 340.800 75.200 340.800 84.351 C 340.800 95.758,340.069 97.826,335.750 98.636 C 329.765 99.759,328.000 96.339,328.000 83.623 L 328.000 75.200 319.577 75.200 C 314.884 75.200,310.396 75.009,309.443 74.769 C 304.604 73.551,302.806 68.012,306.106 64.490 C 307.947 62.525,308.695 62.400,318.641 62.400 L 327.959 62.400 328.079 53.100 C 328.215 42.660,328.484 41.487,331.159 39.705 C 332.678 38.694,335.831 38.467,337.318 39.263 M214.037 149.739 C 212.558 150.289,211.032 151.906,209.742 154.289 C 209.292 155.120,208.535 156.475,208.062 157.300 C 207.588 158.125,206.821 159.475,206.357 160.300 C 205.894 161.125,205.380 161.980,205.215 162.200 C 205.050 162.420,204.370 163.590,203.704 164.800 C 202.667 166.684,196.275 177.894,193.953 181.900 C 192.713 184.041,191.649 185.912,190.769 187.500 C 187.306 193.752,187.212 193.832,185.860 191.700 C 185.337 190.875,183.714 188.349,182.254 186.086 C 180.794 183.824,179.600 181.882,179.600 181.771 C 179.600 181.660,178.561 180.001,177.291 178.085 C 176.021 176.168,174.726 174.097,174.413 173.481 C 172.911 170.525,169.896 168.000,167.869 168.000 C 164.742 168.000,163.324 169.485,158.703 177.600 C 158.265 178.370,157.567 179.478,157.153 180.062 C 156.739 180.646,156.400 181.243,156.400 181.390 C 156.400 181.536,155.860 182.441,155.200 183.400 C 154.540 184.359,154.000 185.223,154.000 185.320 C 154.000 185.662,149.252 193.280,148.568 194.035 C 147.906 194.766,147.094 194.800,130.038 194.801 C 113.291 194.803,112.125 194.849,110.968 195.554 C 107.513 197.661,107.672 203.290,111.245 205.400 C 112.552 206.172,113.318 206.200,133.000 206.200 L 153.400 206.200 154.707 205.268 C 155.851 204.452,159.200 200.074,159.200 199.394 C 159.200 199.257,159.740 198.359,160.400 197.400 C 161.060 196.441,161.600 195.536,161.600 195.390 C 161.600 195.243,161.939 194.646,162.353 194.062 C 163.080 193.036,164.010 191.495,166.308 187.506 C 167.454 185.517,167.554 185.433,168.204 185.906 C 168.617 186.207,172.800 192.704,172.800 193.045 C 172.800 193.149,172.981 193.451,173.201 193.717 C 173.822 194.464,178.004 201.009,180.338 204.886 C 184.589 211.947,189.992 212.981,192.910 207.292 C 193.217 206.691,193.859 205.525,194.335 204.700 C 194.811 203.875,195.560 202.570,196.000 201.800 C 196.440 201.030,197.137 199.815,197.549 199.100 C 200.126 194.627,209.461 178.295,210.295 176.800 C 210.847 175.810,211.682 174.370,212.149 173.600 C 212.617 172.830,213.479 171.300,214.064 170.200 C 215.445 167.603,216.153 167.643,217.661 170.400 C 218.323 171.610,219.280 173.320,219.787 174.200 C 220.293 175.080,221.383 177.060,222.209 178.600 C 224.527 182.926,225.804 185.272,226.670 186.800 C 227.107 187.570,228.244 189.640,229.197 191.400 C 230.149 193.160,231.822 196.220,232.914 198.200 C 234.934 201.865,236.062 203.920,238.400 208.200 C 239.866 210.884,241.101 213.115,242.275 215.200 C 242.709 215.970,243.835 218.040,244.778 219.800 C 248.566 226.873,251.302 228.740,254.890 226.700 C 256.241 225.931,259.200 222.293,259.200 221.400 C 259.200 221.259,259.740 220.359,260.400 219.400 C 261.060 218.441,261.600 217.541,261.600 217.400 C 261.600 217.259,262.140 216.359,262.800 215.400 C 263.460 214.441,264.000 213.536,264.000 213.390 C 264.000 213.243,264.345 212.639,264.767 212.046 C 265.189 211.453,266.122 209.895,266.840 208.584 C 267.557 207.273,269.642 203.698,271.472 200.639 C 273.302 197.581,274.800 194.926,274.800 194.739 C 274.800 194.553,274.980 194.400,275.200 194.400 C 275.420 194.400,275.600 194.164,275.600 193.875 C 275.600 193.587,275.967 192.957,276.416 192.475 L 277.231 191.600 301.116 191.599 C 323.056 191.599,325.113 191.542,326.392 190.899 C 331.133 188.518,330.397 182.004,325.211 180.450 C 323.141 179.830,274.674 179.819,272.216 180.438 C 269.746 181.060,266.908 184.955,260.296 196.800 C 259.866 197.570,259.373 198.380,259.200 198.600 C 259.027 198.820,258.523 199.650,258.080 200.445 C 256.469 203.338,256.196 203.804,256.000 204.000 C 255.756 204.244,254.841 205.829,254.118 207.258 C 252.664 210.135,252.791 210.256,248.003 201.400 C 247.409 200.300,246.445 198.545,245.861 197.500 C 245.278 196.455,244.322 194.745,243.739 193.700 C 243.155 192.655,242.190 190.900,241.593 189.800 C 240.996 188.700,239.825 186.540,238.990 185.000 C 238.155 183.460,236.781 180.969,235.936 179.464 C 235.091 177.959,234.400 176.662,234.400 176.582 C 234.400 176.501,233.893 175.572,233.273 174.518 C 232.058 172.450,230.123 168.944,227.909 164.800 C 227.145 163.370,226.164 161.570,225.728 160.800 C 225.292 160.030,224.162 157.960,223.215 156.200 C 219.819 149.885,217.682 148.381,214.037 149.739 M55.792 309.200 C 55.792 329.330,55.840 337.565,55.900 327.500 C 55.959 317.435,55.959 300.965,55.900 290.900 C 55.840 280.835,55.792 289.070,55.792 309.200 " stroke="none" fill="#eceaf0" fill-rule="evenodd"></path><path id="path3" d="M314.700 74.699 C 317.175 74.769,321.225 74.769,323.700 74.699 C 326.175 74.628,324.150 74.571,319.200 74.571 C 314.250 74.571,312.225 74.628,314.700 74.699 M340.660 74.700 C 340.558 74.865,341.942 74.952,343.737 74.892 C 349.617 74.698,350.282 74.541,345.524 74.470 C 342.952 74.431,340.763 74.535,340.660 74.700 M122.100 194.300 C 126.885 194.363,134.715 194.363,139.500 194.300 C 144.285 194.236,140.370 194.184,130.800 194.184 C 121.230 194.184,117.315 194.236,122.100 194.300 M167.400 253.583 C 166.300 253.724,169.360 253.842,174.200 253.846 C 179.496 253.850,182.124 253.738,180.800 253.566 C 178.134 253.218,170.158 253.228,167.400 253.583 M159.400 254.400 L 157.800 254.686 159.800 254.703 C 160.900 254.713,162.250 254.576,162.800 254.400 C 164.131 253.974,161.781 253.974,159.400 254.400 M185.400 254.400 C 186.060 254.568,187.230 254.705,188.000 254.705 L 189.400 254.705 188.200 254.400 C 187.540 254.232,186.370 254.095,185.600 254.095 L 184.200 254.095 185.400 254.400 M154.000 255.200 L 152.600 255.495 154.200 255.519 C 155.080 255.533,156.160 255.389,156.600 255.200 C 157.642 254.752,156.126 254.752,154.000 255.200 M190.400 255.200 C 190.730 255.413,191.630 255.569,192.400 255.547 L 193.800 255.505 192.600 255.200 C 190.724 254.723,189.661 254.723,190.400 255.200 M149.200 256.000 C 148.225 256.312,148.230 256.321,149.400 256.332 C 150.060 256.338,150.960 256.189,151.400 256.000 C 152.494 255.530,150.667 255.530,149.200 256.000 M194.600 256.000 C 195.040 256.189,195.940 256.338,196.600 256.332 C 197.770 256.321,197.775 256.312,196.800 256.000 C 195.333 255.530,193.506 255.530,194.600 256.000 M144.400 256.800 L 143.000 257.095 144.600 257.119 C 145.480 257.133,146.560 256.989,147.000 256.800 C 148.042 256.352,146.526 256.352,144.400 256.800 M199.200 256.800 C 199.530 257.013,200.430 257.169,201.200 257.147 L 202.600 257.105 201.400 256.800 C 199.524 256.323,198.461 256.323,199.200 256.800 M138.500 257.835 C 129.991 259.492,128.533 260.012,135.800 258.798 C 137.120 258.577,139.142 258.250,140.294 258.071 C 141.446 257.892,142.511 257.622,142.661 257.472 C 143.052 257.082,141.817 257.189,138.500 257.835 M203.400 257.580 C 204.161 257.926,207.117 258.164,206.767 257.851 C 206.675 257.769,205.700 257.593,204.600 257.459 C 203.254 257.295,202.861 257.335,203.400 257.580 M207.263 258.184 C 207.407 258.335,208.577 258.634,209.863 258.848 C 211.148 259.062,213.190 259.417,214.400 259.637 C 218.196 260.328,220.522 260.451,217.400 259.796 C 210.710 258.392,206.880 257.783,207.263 258.184 M124.000 260.426 C 119.644 261.199,116.310 261.762,112.200 262.419 C 110.880 262.630,108.720 262.995,107.400 263.232 C 106.080 263.468,103.740 263.814,102.200 264.000 L 99.400 264.340 102.600 264.184 C 104.360 264.099,106.790 263.834,108.000 263.596 C 110.265 263.151,113.068 262.671,117.600 261.953 C 119.030 261.726,121.280 261.361,122.600 261.141 C 123.920 260.922,125.939 260.611,127.086 260.451 C 128.234 260.292,129.299 260.035,129.453 259.880 C 129.859 259.474,128.724 259.588,124.000 260.426 M221.000 260.773 C 221.440 260.977,222.284 261.156,222.876 261.172 C 223.468 261.187,224.064 261.380,224.200 261.600 C 224.336 261.820,224.752 262.002,225.124 262.005 C 226.211 262.013,231.888 265.067,234.379 266.984 C 236.981 268.986,240.400 272.732,240.400 273.581 C 240.400 273.785,240.578 274.063,240.795 274.197 C 241.277 274.495,240.887 273.327,240.129 272.200 C 237.574 268.405,232.179 264.405,226.351 261.987 C 223.907 260.972,219.054 259.872,221.000 260.773 M241.325 275.509 C 241.930 278.199,234.869 283.718,228.596 285.459 C 225.607 286.288,216.359 286.403,210.600 285.684 C 208.400 285.409,205.070 284.998,203.200 284.771 C 201.330 284.545,198.540 284.194,197.000 283.992 C 195.460 283.790,192.670 283.432,190.800 283.196 C 185.647 282.545,181.699 282.031,178.600 281.608 C 172.146 280.725,166.668 283.793,163.949 289.813 C 162.655 292.678,162.635 298.624,163.912 301.175 C 164.995 303.341,164.997 303.441,164.000 305.506 C 163.560 306.416,163.205 307.395,163.210 307.681 C 163.216 307.966,163.746 307.120,164.388 305.800 C 166.482 301.497,170.218 298.625,174.271 298.205 C 176.701 297.953,178.807 298.153,192.900 299.975 C 218.852 303.329,224.644 303.441,231.600 300.720 C 236.171 298.931,240.162 295.389,241.874 291.600 C 242.421 290.390,243.033 289.087,243.234 288.705 C 243.733 287.758,243.703 279.311,243.200 279.000 C 242.980 278.864,242.800 278.408,242.800 277.986 C 242.800 277.564,242.422 276.630,241.961 275.910 C 241.310 274.894,241.167 274.804,241.325 275.509 M162.652 309.300 C 162.307 310.588,162.355 314.111,162.726 314.694 C 162.899 314.966,163.040 313.661,163.040 311.794 C 163.040 308.115,163.014 307.949,162.652 309.300 M163.228 316.276 C 163.213 316.758,163.380 317.264,163.600 317.400 C 164.073 317.692,164.073 317.301,163.600 316.200 C 163.269 315.429,163.255 315.431,163.228 316.276 M164.000 318.202 C 164.000 320.472,170.553 325.319,174.600 326.043 C 175.480 326.201,177.190 326.527,178.400 326.769 C 179.610 327.010,181.320 327.290,182.200 327.391 L 183.800 327.574 182.400 327.234 C 181.630 327.047,179.199 326.524,176.998 326.072 C 170.926 324.825,168.371 323.458,165.627 319.986 C 164.732 318.854,164.000 318.052,164.000 318.202 M352.138 326.736 C 351.923 326.881,351.143 327.900,350.405 329.000 C 346.084 335.440,342.715 337.268,324.600 342.995 C 320.640 344.247,315.870 345.775,314.000 346.389 C 312.130 347.004,307.630 348.449,304.000 349.600 C 300.370 350.751,295.870 352.196,294.000 352.811 C 292.130 353.425,287.360 354.952,283.400 356.202 C 279.440 357.453,275.210 358.809,274.000 359.217 C 272.790 359.624,269.010 360.845,265.600 361.931 C 255.236 365.231,241.640 369.619,237.200 371.098 C 234.890 371.868,232.460 372.634,231.800 372.802 C 231.140 372.969,227.990 373.923,224.800 374.921 C 217.400 377.236,212.188 378.594,208.400 379.195 C 206.750 379.457,204.536 379.835,203.480 380.035 C 201.009 380.505,189.999 380.508,187.173 380.040 C 185.978 379.842,183.650 379.461,182.000 379.194 C 178.626 378.647,173.460 377.387,168.400 375.878 C 166.530 375.320,162.480 374.202,159.400 373.394 C 156.320 372.586,153.260 371.762,152.600 371.564 C 151.940 371.366,150.050 370.840,148.400 370.394 C 146.750 369.948,144.770 369.411,144.000 369.200 C 143.230 368.989,141.250 368.449,139.600 368.000 C 137.950 367.551,135.970 367.011,135.200 366.800 C 134.430 366.589,132.540 366.075,131.000 365.657 C 127.392 364.679,120.867 362.903,111.640 360.387 C 107.592 359.283,102.912 358.012,101.240 357.563 C 99.568 357.113,97.255 356.488,96.100 356.173 C 94.945 355.858,93.010 355.330,91.800 355.000 C 90.590 354.670,88.610 354.130,87.400 353.800 C 84.754 353.078,81.117 352.075,79.200 351.539 C 78.430 351.323,77.170 350.991,76.400 350.800 C 75.630 350.609,74.370 350.277,73.600 350.061 C 71.686 349.526,68.031 348.518,65.500 347.828 C 64.345 347.513,62.050 346.887,60.400 346.437 C 58.750 345.987,57.175 345.615,56.900 345.609 C 56.516 345.602,56.400 347.455,56.400 353.567 C 56.400 362.234,56.481 362.800,57.714 362.800 C 58.599 362.800,60.948 363.470,62.095 364.049 C 62.477 364.242,63.141 364.400,63.571 364.400 C 64.001 364.400,64.476 364.599,64.626 364.843 C 64.817 365.151,65.004 365.121,65.244 364.743 C 65.497 364.343,65.589 364.332,65.594 364.700 C 65.597 364.975,66.050 365.200,66.600 365.200 C 67.150 365.200,67.600 365.380,67.600 365.600 C 67.600 365.820,68.320 366.000,69.200 366.000 C 70.080 366.000,70.800 366.180,70.800 366.400 C 70.800 366.620,71.340 366.800,72.000 366.800 C 72.660 366.800,73.200 366.943,73.200 367.118 C 73.200 367.293,73.875 367.480,74.700 367.533 C 76.279 367.635,78.738 368.343,79.380 368.882 C 79.589 369.057,80.163 369.200,80.656 369.200 C 81.149 369.200,81.664 369.380,81.800 369.600 C 81.936 369.820,82.767 370.000,83.647 370.000 C 84.735 370.000,85.158 370.145,84.968 370.452 C 84.797 370.728,84.904 370.826,85.244 370.704 C 85.550 370.594,86.407 370.751,87.149 371.052 C 87.891 371.353,88.926 371.600,89.449 371.600 C 89.972 371.600,90.400 371.780,90.400 372.000 C 90.400 372.220,91.109 372.400,91.976 372.400 C 92.843 372.400,93.664 372.580,93.800 372.800 C 93.936 373.020,94.498 373.200,95.050 373.200 C 95.601 373.200,96.391 373.381,96.805 373.603 C 97.219 373.824,98.017 374.043,98.579 374.090 C 99.140 374.136,99.600 374.304,99.600 374.463 C 99.600 374.622,100.860 374.876,102.400 375.027 C 104.031 375.188,105.203 375.491,105.206 375.752 C 105.210 376.012,105.356 375.973,105.556 375.657 C 105.796 375.279,105.983 375.249,106.174 375.557 C 106.324 375.801,106.897 376.000,107.447 376.000 C 108.012 376.000,108.340 376.174,108.200 376.400 C 108.051 376.642,108.596 376.800,109.576 376.800 C 110.469 376.800,111.200 376.980,111.200 377.200 C 111.200 377.420,111.740 377.600,112.400 377.600 C 113.060 377.600,113.600 377.780,113.600 378.000 C 113.600 378.220,114.129 378.400,114.776 378.400 C 115.423 378.400,116.064 378.580,116.200 378.800 C 116.336 379.020,117.067 379.200,117.824 379.200 C 118.581 379.200,119.200 379.380,119.200 379.600 C 119.200 379.820,119.920 380.000,120.800 380.000 C 121.680 380.000,122.400 380.180,122.400 380.400 C 122.400 380.620,123.120 380.800,124.000 380.800 C 124.880 380.800,125.600 380.980,125.600 381.200 C 125.600 381.420,126.140 381.600,126.800 381.600 C 127.460 381.600,128.000 381.780,128.000 382.000 C 128.000 382.220,128.630 382.400,129.400 382.400 C 130.170 382.400,130.800 382.580,130.800 382.800 C 130.800 383.020,131.419 383.200,132.176 383.200 C 132.933 383.200,133.664 383.380,133.800 383.600 C 133.936 383.820,134.566 384.000,135.200 384.000 C 135.834 384.000,136.464 384.180,136.600 384.400 C 136.736 384.620,137.452 384.800,138.190 384.800 C 138.929 384.800,139.593 384.980,139.667 385.199 C 139.740 385.419,140.558 385.628,141.483 385.664 C 142.409 385.700,143.074 385.881,142.960 386.065 C 142.846 386.249,143.303 386.400,143.976 386.400 C 144.649 386.400,145.200 386.562,145.200 386.760 C 145.200 386.958,145.835 387.120,146.611 387.120 C 147.387 387.120,148.267 387.324,148.567 387.573 C 148.867 387.822,149.655 388.065,150.317 388.113 C 150.980 388.161,151.453 388.313,151.368 388.450 C 151.284 388.588,151.699 388.700,152.291 388.700 C 152.882 388.700,153.434 388.903,153.517 389.150 C 153.601 389.402,154.532 389.600,155.633 389.600 C 156.715 389.600,157.600 389.757,157.600 389.950 C 157.600 390.143,158.185 390.435,158.900 390.601 C 159.615 390.767,160.470 390.973,160.800 391.060 C 161.130 391.148,162.210 391.320,163.200 391.443 C 164.190 391.567,165.060 391.832,165.133 392.034 C 165.207 392.235,165.781 392.400,166.410 392.400 C 167.038 392.400,167.664 392.580,167.800 392.800 C 167.936 393.020,168.667 393.200,169.424 393.200 C 170.181 393.200,170.800 393.380,170.800 393.600 C 170.800 393.820,171.329 394.000,171.976 394.000 C 172.623 394.000,173.240 394.141,173.346 394.313 C 173.452 394.485,174.113 394.669,174.814 394.722 C 175.515 394.776,176.417 394.995,176.818 395.210 C 177.219 395.424,178.200 395.600,178.997 395.600 C 179.795 395.600,180.347 395.761,180.226 395.959 C 180.104 396.156,181.036 396.330,182.297 396.345 C 183.559 396.360,184.653 396.558,184.729 396.786 C 184.908 397.323,205.282 397.357,205.820 396.822 C 206.029 396.614,207.055 396.389,208.100 396.322 C 209.145 396.255,210.000 396.065,210.000 395.900 C 210.000 395.735,210.810 395.600,211.800 395.600 C 212.790 395.600,213.600 395.420,213.600 395.200 C 213.600 394.980,214.320 394.800,215.200 394.800 C 216.080 394.800,216.800 394.620,216.800 394.400 C 216.800 394.180,217.419 394.000,218.176 394.000 C 218.933 394.000,219.664 393.820,219.800 393.600 C 219.936 393.380,220.577 393.200,221.224 393.200 C 221.871 393.200,222.400 393.020,222.400 392.800 C 222.400 392.580,222.745 392.400,223.167 392.400 C 223.588 392.400,223.993 392.243,224.067 392.052 C 224.140 391.861,225.272 391.590,226.582 391.450 C 227.893 391.310,229.144 391.016,229.362 390.798 C 229.581 390.579,230.185 390.400,230.704 390.400 C 231.223 390.400,231.564 390.265,231.463 390.100 C 231.361 389.935,231.935 389.752,232.739 389.693 C 233.543 389.634,234.260 389.409,234.333 389.193 C 234.407 388.977,234.992 388.800,235.633 388.800 C 236.275 388.800,236.800 388.620,236.800 388.400 C 236.800 388.180,237.430 388.000,238.200 388.000 C 238.970 388.000,239.600 387.820,239.600 387.600 C 239.600 387.380,240.050 387.200,240.600 387.200 C 241.150 387.200,241.600 387.020,241.600 386.800 C 241.600 386.580,242.129 386.400,242.776 386.400 C 243.423 386.400,244.064 386.220,244.200 386.000 C 244.336 385.780,244.887 385.600,245.424 385.600 C 245.961 385.600,246.400 385.458,246.400 385.285 C 246.400 385.112,246.982 384.926,247.693 384.872 C 248.405 384.817,249.161 384.599,249.373 384.387 C 249.586 384.174,250.264 384.000,250.880 384.000 C 251.496 384.000,252.000 383.820,252.000 383.600 C 252.000 383.380,252.360 383.200,252.800 383.200 C 253.240 383.200,253.600 383.020,253.600 382.800 C 253.600 382.580,253.735 382.421,253.900 382.447 C 255.042 382.628,256.807 382.335,256.600 382.000 C 256.390 381.660,257.509 381.396,258.500 381.553 C 258.665 381.579,258.800 381.420,258.800 381.200 C 258.800 380.980,259.340 380.800,260.000 380.800 C 260.660 380.800,261.200 380.620,261.200 380.400 C 261.200 380.180,261.560 380.000,262.000 380.000 C 262.440 380.000,262.800 379.855,262.800 379.678 C 262.800 379.501,263.560 379.312,264.490 379.257 C 265.419 379.202,266.274 379.032,266.390 378.879 C 266.762 378.385,268.493 377.526,268.218 377.970 C 268.072 378.207,268.128 378.400,268.343 378.400 C 268.558 378.400,268.793 378.226,268.867 378.013 C 268.940 377.800,269.573 377.582,270.272 377.530 C 270.972 377.477,271.456 377.291,271.349 377.117 C 271.241 376.943,271.624 376.800,272.200 376.800 C 272.796 376.800,273.141 376.628,273.000 376.400 C 272.864 376.180,272.928 376.000,273.143 376.000 C 273.358 376.000,273.624 376.225,273.735 376.500 C 273.896 376.900,273.943 376.900,273.968 376.500 C 273.986 376.225,274.255 376.000,274.567 376.000 C 274.878 376.000,275.193 375.840,275.267 375.645 C 275.340 375.449,276.480 375.166,277.800 375.016 C 279.120 374.866,280.260 374.576,280.333 374.372 C 280.407 374.167,280.904 374.000,281.439 374.000 C 281.973 374.000,282.723 373.838,283.105 373.639 C 283.487 373.440,284.610 373.063,285.600 372.800 C 286.590 372.537,287.713 372.160,288.095 371.961 C 288.477 371.762,289.162 371.600,289.618 371.600 C 290.074 371.600,290.336 371.420,290.200 371.200 C 290.056 370.967,290.463 370.800,291.176 370.800 C 291.849 370.800,292.400 370.620,292.400 370.400 C 292.400 370.180,292.535 370.021,292.700 370.047 C 294.004 370.253,295.732 369.944,295.200 369.600 C 294.760 369.315,295.043 369.211,296.267 369.206 C 297.183 369.203,298.001 368.998,298.083 368.750 C 298.166 368.503,298.718 368.300,299.309 368.300 C 299.901 368.300,300.288 368.143,300.169 367.950 C 300.050 367.757,300.593 367.600,301.376 367.600 C 302.159 367.600,302.800 367.420,302.800 367.200 C 302.800 366.980,303.250 366.800,303.800 366.800 C 304.350 366.800,304.803 366.575,304.806 366.300 C 304.810 365.967,304.942 366.000,305.200 366.400 C 305.413 366.730,305.592 366.820,305.597 366.600 C 305.602 366.380,306.055 365.992,306.604 365.737 C 307.188 365.467,307.497 365.442,307.351 365.679 C 307.214 365.901,307.543 365.794,308.083 365.440 C 308.622 365.086,309.184 364.918,309.332 365.065 C 309.479 365.213,309.600 365.123,309.600 364.867 C 309.600 364.589,310.248 364.400,311.200 364.400 C 312.080 364.400,312.800 364.220,312.800 364.000 C 312.800 363.780,313.385 363.597,314.100 363.594 C 315.086 363.589,315.255 363.494,314.800 363.200 C 314.361 362.916,314.655 362.811,315.900 362.806 C 316.835 362.803,317.600 362.620,317.600 362.400 C 317.600 362.180,318.125 362.000,318.767 362.000 C 319.408 362.000,319.993 361.822,320.067 361.603 C 320.140 361.385,320.695 361.166,321.300 361.116 C 321.905 361.066,322.400 360.885,322.400 360.713 C 322.400 360.541,322.951 360.400,323.624 360.400 C 324.337 360.400,324.744 360.233,324.600 360.000 C 324.453 359.762,324.921 359.600,325.753 359.600 C 326.523 359.600,327.251 359.441,327.371 359.247 C 327.491 359.052,328.579 358.770,329.788 358.619 C 330.998 358.468,332.091 358.177,332.217 357.972 C 332.344 357.767,332.797 357.600,333.224 357.600 C 333.651 357.600,334.000 357.450,334.000 357.267 C 334.000 357.083,334.225 356.905,334.500 356.870 C 336.186 356.658,336.838 356.445,339.000 355.399 C 340.320 354.760,341.532 354.049,341.694 353.819 C 341.856 353.588,341.991 353.545,341.994 353.723 C 342.003 354.186,344.350 352.793,345.738 351.500 C 346.387 350.895,347.083 350.400,347.283 350.400 C 347.483 350.400,347.519 350.192,347.362 349.938 C 347.198 349.673,347.251 349.584,347.487 349.730 C 347.970 350.029,349.600 348.719,349.600 348.031 C 349.600 347.770,350.139 346.981,350.798 346.278 C 351.457 345.575,351.997 344.775,351.998 344.500 C 351.999 344.225,352.225 343.997,352.500 343.994 C 352.892 343.989,352.894 343.921,352.509 343.676 C 352.148 343.446,352.227 343.213,352.809 342.794 C 353.244 342.480,353.600 341.824,353.600 341.335 C 353.600 340.847,353.780 340.336,354.000 340.200 C 354.220 340.064,354.400 339.243,354.400 338.376 C 354.400 337.509,354.580 336.800,354.800 336.800 C 355.020 336.800,355.200 336.080,355.200 335.200 C 355.200 334.320,355.020 333.600,354.800 333.600 C 354.580 333.600,354.400 332.608,354.400 331.395 C 354.400 328.732,353.113 326.080,352.138 326.736 M184.800 327.979 C 185.130 328.204,185.925 328.391,186.567 328.394 C 188.104 328.402,187.784 328.170,185.800 327.838 C 184.654 327.646,184.370 327.686,184.800 327.979 M188.800 328.788 C 189.130 329.008,190.015 329.191,190.767 329.194 C 192.560 329.202,192.241 328.975,190.000 328.650 C 188.742 328.467,188.381 328.509,188.800 328.788 M193.800 329.582 C 196.625 330.375,198.898 330.797,200.106 330.754 C 200.832 330.728,201.049 330.638,200.600 330.550 C 195.817 329.608,191.910 329.052,193.800 329.582 M202.600 331.193 C 204.050 331.612,206.532 332.090,217.200 334.003 C 219.730 334.457,222.610 334.996,223.600 335.201 C 224.590 335.406,226.480 335.659,227.800 335.763 L 230.200 335.953 228.000 335.554 C 223.533 334.745,216.948 333.535,215.200 333.203 C 214.210 333.015,212.230 332.653,210.800 332.400 C 209.370 332.147,207.390 331.784,206.400 331.594 C 203.334 331.005,201.158 330.775,202.600 331.193 M263.400 331.588 C 262.960 331.772,261.610 332.120,260.400 332.362 C 259.190 332.604,256.760 333.094,255.000 333.451 C 253.240 333.808,250.922 334.250,249.849 334.434 C 248.777 334.618,247.787 334.881,247.649 335.020 C 247.356 335.316,249.493 334.987,253.400 334.135 C 254.940 333.799,257.100 333.371,258.200 333.185 C 261.889 332.560,263.661 332.099,264.112 331.648 C 264.627 331.133,264.512 331.124,263.400 331.588 M243.800 335.600 C 242.137 336.023,243.774 336.042,245.800 335.623 C 247.145 335.345,247.209 335.292,246.200 335.293 C 245.540 335.294,244.460 335.432,243.800 335.600 M233.983 336.390 C 235.623 336.540,238.053 336.539,239.383 336.386 C 241.193 336.179,240.444 336.110,236.400 336.113 C 231.812 336.117,231.448 336.158,233.983 336.390 " stroke="none" fill="#fbbb85" fill-rule="evenodd"></path><path id="path4" d="M331.817 39.724 C 329.055 41.404,329.019 41.556,328.800 52.561 L 328.600 62.600 318.800 62.800 C 307.736 63.026,307.212 63.157,305.641 66.100 C 304.238 68.729,304.888 71.553,307.291 73.267 C 308.562 74.173,308.880 74.204,318.184 74.321 C 323.910 74.393,327.966 74.605,328.259 74.849 C 328.615 75.144,328.783 77.925,328.874 84.999 C 329.023 96.556,329.763 98.301,334.546 98.381 C 339.163 98.458,340.153 96.061,340.400 84.200 L 340.600 74.600 350.000 74.600 C 358.465 74.600,359.554 74.524,360.947 73.832 C 364.986 71.828,365.065 65.782,361.084 63.505 C 360.467 63.153,357.235 62.939,350.400 62.800 L 340.600 62.600 340.400 53.000 C 340.179 42.390,340.037 41.728,337.641 40.115 C 336.129 39.097,333.173 38.899,331.817 39.724 M131.200 71.200 C 131.200 71.443,129.408 71.600,126.624 71.600 C 124.004 71.600,121.942 71.771,121.800 72.000 C 121.664 72.220,120.663 72.400,119.576 72.400 C 118.489 72.400,117.600 72.580,117.600 72.800 C 117.600 73.020,116.801 73.200,115.824 73.200 C 114.847 73.200,113.936 73.380,113.800 73.600 C 113.664 73.820,113.023 74.000,112.376 74.000 C 111.729 74.000,111.200 74.180,111.200 74.400 C 111.200 74.620,110.671 74.800,110.024 74.800 C 109.377 74.800,108.736 74.980,108.600 75.200 C 108.464 75.420,107.924 75.600,107.400 75.600 C 106.876 75.600,106.336 75.780,106.200 76.000 C 106.064 76.220,105.603 76.400,105.176 76.400 C 104.749 76.400,104.400 76.560,104.400 76.755 C 104.400 76.951,103.769 77.229,102.999 77.374 C 101.756 77.607,96.923 79.811,96.400 80.383 C 96.290 80.503,95.660 80.870,95.000 81.198 C 94.340 81.526,93.509 82.111,93.153 82.497 C 92.797 82.884,92.252 83.200,91.941 83.200 C 91.631 83.200,91.117 83.560,90.800 84.000 C 90.483 84.440,89.943 84.800,89.600 84.800 C 89.257 84.800,88.717 85.160,88.400 85.600 C 88.083 86.040,87.617 86.400,87.365 86.400 C 87.114 86.400,85.599 87.660,84.000 89.200 C 82.401 90.740,80.907 92.000,80.680 92.000 C 80.452 92.000,80.381 92.114,80.520 92.253 C 80.659 92.392,80.059 93.024,79.187 93.656 C 78.314 94.288,77.600 94.980,77.600 95.194 C 77.600 95.408,76.610 96.573,75.400 97.783 C 74.190 98.993,73.200 100.184,73.200 100.431 C 73.200 100.677,72.660 101.383,72.000 102.000 C 71.340 102.617,70.800 103.337,70.800 103.600 C 70.800 103.863,70.260 104.583,69.600 105.200 C 68.940 105.817,68.400 106.569,68.400 106.872 C 68.400 107.175,68.040 107.683,67.600 108.000 C 67.160 108.317,66.800 108.814,66.800 109.105 C 66.800 109.396,66.469 109.989,66.064 110.423 C 65.659 110.858,65.074 111.705,64.765 112.307 C 64.455 112.908,64.091 113.490,63.957 113.600 C 63.416 114.042,60.000 121.025,60.000 121.688 C 60.000 122.080,59.820 122.400,59.600 122.400 C 59.380 122.400,59.200 122.760,59.200 123.200 C 59.200 123.640,59.020 124.000,58.800 124.000 C 58.580 124.000,58.400 124.540,58.400 125.200 C 58.400 125.860,58.220 126.400,58.000 126.400 C 57.780 126.400,57.600 126.749,57.600 127.176 C 57.600 127.603,57.420 128.064,57.200 128.200 C 56.980 128.336,56.800 128.797,56.800 129.224 C 56.800 129.651,56.620 130.000,56.400 130.000 C 56.180 130.000,56.000 130.540,56.000 131.200 C 56.000 131.860,55.820 132.400,55.600 132.400 C 55.380 132.400,55.200 132.940,55.200 133.600 C 55.200 134.260,55.020 134.800,54.800 134.800 C 54.580 134.800,54.400 135.340,54.400 136.000 C 54.400 136.660,54.220 137.200,54.000 137.200 C 53.780 137.200,53.600 137.920,53.600 138.800 C 53.600 139.680,53.420 140.400,53.200 140.400 C 52.980 140.400,52.800 141.120,52.800 142.000 C 52.800 142.880,52.620 143.600,52.400 143.600 C 52.180 143.600,52.000 144.399,52.000 145.376 C 52.000 146.353,51.820 147.264,51.600 147.400 C 51.380 147.536,51.200 148.612,51.200 149.790 C 51.200 150.969,51.029 151.993,50.821 152.067 C 50.612 152.140,50.408 153.775,50.366 155.700 C 50.325 157.625,50.129 159.200,49.932 159.200 C 49.185 159.200,50.056 184.184,50.830 184.980 C 51.034 185.189,51.200 186.404,51.200 187.680 C 51.200 188.960,51.379 190.000,51.600 190.000 C 51.820 190.000,52.000 190.799,52.000 191.776 C 52.000 192.753,52.180 193.664,52.400 193.800 C 52.620 193.936,52.800 194.577,52.800 195.224 C 52.800 195.871,52.943 196.400,53.118 196.400 C 53.293 196.400,53.481 197.075,53.536 197.900 C 53.590 198.725,53.807 199.460,54.018 199.533 C 54.228 199.607,54.400 200.271,54.400 201.010 C 54.400 201.748,54.580 202.464,54.800 202.600 C 55.020 202.736,55.200 203.276,55.200 203.800 C 55.200 204.324,55.380 204.864,55.600 205.000 C 55.820 205.136,56.000 205.687,56.000 206.224 C 56.000 206.761,56.180 207.200,56.400 207.200 C 56.620 207.200,56.800 207.560,56.800 208.000 C 56.800 208.440,56.980 208.800,57.200 208.800 C 57.420 208.800,57.600 209.239,57.600 209.776 C 57.600 210.313,57.780 210.864,58.000 211.000 C 58.220 211.136,58.400 211.597,58.400 212.024 C 58.400 212.451,58.580 212.800,58.800 212.800 C 59.020 212.800,59.200 213.160,59.200 213.600 C 59.200 214.040,59.358 214.400,59.550 214.400 C 59.743 214.400,60.017 214.984,60.159 215.697 C 60.489 217.343,61.304 219.200,61.698 219.200 C 61.864 219.200,62.000 219.545,62.000 219.967 C 62.000 220.388,62.135 220.793,62.300 220.867 C 62.465 220.940,63.029 221.847,63.554 222.882 C 64.078 223.918,64.843 225.125,65.254 225.566 C 65.664 226.006,66.000 226.604,66.000 226.895 C 66.000 227.186,66.360 227.683,66.800 228.000 C 67.240 228.317,67.600 228.857,67.600 229.200 C 67.600 229.543,67.960 230.083,68.400 230.400 C 68.840 230.717,69.200 231.257,69.200 231.600 C 69.200 231.943,69.560 232.483,70.000 232.800 C 70.440 233.117,70.800 233.607,70.800 233.888 C 70.800 234.170,70.980 234.400,71.200 234.400 C 71.420 234.400,71.600 234.598,71.600 234.840 C 71.600 235.081,72.140 235.783,72.800 236.400 C 73.460 237.017,74.000 237.630,74.000 237.764 C 74.000 238.200,76.081 240.410,83.700 248.066 C 87.825 252.211,91.200 255.675,91.200 255.764 C 91.200 255.853,92.718 257.483,94.574 259.385 C 96.430 261.287,98.019 263.059,98.107 263.322 C 98.323 263.971,103.789 263.933,107.400 263.255 C 108.940 262.967,111.190 262.575,112.400 262.385 C 116.661 261.716,119.470 261.239,126.600 259.976 C 130.560 259.275,134.700 258.551,135.800 258.367 C 136.900 258.184,140.320 257.577,143.400 257.018 C 167.227 252.698,177.368 252.314,192.400 255.162 C 197.668 256.160,197.827 256.189,204.600 257.402 C 221.244 260.383,223.317 260.814,225.971 261.850 C 234.284 265.094,242.792 273.298,242.799 278.076 C 242.800 278.448,242.980 278.864,243.200 279.000 C 243.703 279.311,243.733 287.758,243.234 288.705 C 243.033 289.087,242.421 290.390,241.874 291.600 C 240.162 295.389,236.171 298.931,231.600 300.720 C 224.644 303.441,218.852 303.329,192.900 299.975 C 178.807 298.153,176.701 297.953,174.271 298.205 C 163.909 299.279,159.218 313.572,166.744 321.137 C 170.403 324.815,170.785 324.942,188.000 328.202 C 192.070 328.973,196.480 329.797,197.800 330.032 C 199.120 330.268,201.010 330.613,202.000 330.800 C 202.990 330.987,204.970 331.347,206.400 331.600 C 207.830 331.853,209.810 332.213,210.800 332.400 C 211.790 332.587,213.680 332.932,215.000 333.168 C 216.320 333.403,219.290 333.944,221.600 334.370 C 229.479 335.824,231.094 336.000,236.446 335.993 C 241.821 335.985,244.024 335.684,255.000 333.453 C 256.760 333.095,259.190 332.604,260.400 332.362 C 264.657 331.509,265.487 330.924,272.807 323.605 C 276.661 319.752,280.801 315.433,282.007 314.008 C 283.213 312.582,284.882 310.782,285.716 310.008 C 286.551 309.233,288.171 307.654,289.316 306.499 C 290.462 305.343,296.395 299.370,302.500 293.226 C 308.605 287.083,313.600 281.773,313.600 281.428 C 313.600 281.083,313.825 280.800,314.100 280.800 C 314.375 280.800,315.133 280.125,315.784 279.300 C 316.435 278.475,317.658 277.170,318.501 276.400 C 319.344 275.630,321.151 273.876,322.517 272.502 C 323.883 271.127,329.815 265.157,335.700 259.234 C 341.585 253.311,346.400 248.180,346.400 247.832 C 346.400 247.484,346.649 247.200,346.954 247.200 C 347.259 247.200,347.831 246.707,348.227 246.103 C 348.889 245.093,351.085 242.874,353.879 240.394 C 354.502 239.841,355.455 238.761,355.997 237.994 C 356.539 237.227,357.392 236.187,357.891 235.682 C 358.391 235.177,358.800 234.529,358.800 234.241 C 358.800 233.954,359.340 233.154,360.000 232.463 C 360.660 231.772,361.200 230.975,361.200 230.692 C 361.200 230.409,361.560 229.917,362.000 229.600 C 362.440 229.283,362.800 228.743,362.800 228.400 C 362.800 228.057,363.160 227.517,363.600 227.200 C 364.040 226.883,364.400 226.303,364.400 225.912 C 364.400 225.520,364.580 225.200,364.800 225.200 C 365.020 225.200,365.200 224.930,365.200 224.600 C 365.200 224.270,365.380 224.000,365.600 224.000 C 365.820 224.000,366.000 223.730,366.000 223.400 C 366.000 223.070,366.146 222.800,366.325 222.800 C 366.504 222.800,366.898 222.170,367.200 221.400 C 367.502 220.630,367.896 220.000,368.075 220.000 C 368.254 220.000,368.400 219.640,368.400 219.200 C 368.400 218.760,368.580 218.400,368.800 218.400 C 369.020 218.400,369.200 218.040,369.200 217.600 C 369.200 217.160,369.380 216.800,369.600 216.800 C 369.820 216.800,370.000 216.440,370.000 216.000 C 370.000 215.560,370.180 215.200,370.400 215.200 C 370.620 215.200,370.800 214.851,370.800 214.424 C 370.800 213.997,370.980 213.536,371.200 213.400 C 371.420 213.264,371.600 212.713,371.600 212.176 C 371.600 211.639,371.780 211.200,372.000 211.200 C 372.220 211.200,372.400 210.928,372.400 210.595 C 372.400 210.007,372.567 209.582,373.538 207.705 C 373.792 207.213,374.000 206.459,374.000 206.029 C 374.000 205.599,374.167 205.144,374.372 205.017 C 374.577 204.891,374.867 203.800,375.018 202.594 C 375.169 201.387,375.451 200.400,375.646 200.400 C 375.841 200.400,376.000 199.871,376.000 199.224 C 376.000 198.577,376.180 197.936,376.400 197.800 C 376.620 197.664,376.800 196.854,376.800 196.000 C 376.800 195.146,376.980 194.336,377.200 194.200 C 377.420 194.064,377.600 193.344,377.600 192.600 C 377.600 191.856,377.780 191.136,378.000 191.000 C 378.220 190.864,378.400 189.773,378.400 188.576 C 378.400 187.379,378.580 186.400,378.800 186.400 C 379.031 186.400,379.200 185.141,379.200 183.424 C 379.200 181.787,379.380 180.336,379.600 180.200 C 379.852 180.044,380.000 175.663,380.000 168.376 C 380.000 160.925,379.857 156.800,379.600 156.800 C 379.369 156.800,379.200 155.533,379.200 153.800 C 379.200 152.067,379.031 150.800,378.800 150.800 C 378.580 150.800,378.400 149.810,378.400 148.600 C 378.400 147.390,378.220 146.400,378.000 146.400 C 377.780 146.400,377.600 145.590,377.600 144.600 C 377.600 143.610,377.420 142.800,377.200 142.800 C 376.980 142.800,376.800 142.080,376.800 141.200 C 376.800 140.320,376.620 139.600,376.400 139.600 C 376.180 139.600,376.000 138.981,376.000 138.224 C 376.000 137.467,375.820 136.736,375.600 136.600 C 375.380 136.464,375.200 135.920,375.200 135.390 C 375.200 134.506,374.425 131.741,373.633 129.800 C 372.778 127.703,372.277 126.542,371.953 125.905 C 371.759 125.523,371.600 124.938,371.600 124.605 C 371.600 123.717,370.428 123.865,368.394 125.009 C 362.334 128.415,353.774 132.000,351.697 132.000 C 351.230 132.000,350.748 132.161,350.626 132.358 C 350.505 132.555,349.729 132.808,348.903 132.921 C 348.076 133.033,346.050 133.363,344.400 133.654 C 337.244 134.915,324.621 134.172,317.200 132.054 C 316.430 131.834,315.350 131.537,314.800 131.394 C 314.250 131.250,313.395 130.968,312.900 130.767 C 312.405 130.565,311.595 130.249,311.100 130.064 C 289.207 121.894,273.140 101.490,269.394 77.100 C 269.174 75.666,266.800 74.659,266.800 76.000 C 266.800 76.220,266.260 76.400,265.600 76.400 C 264.940 76.400,264.400 76.557,264.400 76.749 C 264.400 76.941,263.724 77.206,262.898 77.338 C 262.071 77.470,260.640 77.943,259.717 78.389 C 258.794 78.835,257.760 79.200,257.419 79.200 C 257.079 79.200,256.800 79.380,256.800 79.600 C 256.800 79.820,256.440 80.000,256.000 80.000 C 255.560 80.000,255.200 80.180,255.200 80.400 C 255.200 80.620,254.840 80.800,254.400 80.800 C 253.960 80.800,253.600 80.980,253.600 81.200 C 253.600 81.420,253.240 81.600,252.800 81.600 C 252.360 81.600,252.000 81.780,252.000 82.000 C 252.000 82.220,251.640 82.400,251.200 82.400 C 250.760 82.400,250.400 82.580,250.400 82.800 C 250.400 83.020,250.040 83.200,249.600 83.200 C 249.160 83.200,248.800 83.380,248.800 83.600 C 248.800 83.820,248.564 84.000,248.275 84.000 C 247.987 84.000,247.364 84.360,246.892 84.800 C 246.420 85.240,245.848 85.600,245.621 85.600 C 245.235 85.600,244.200 86.346,242.984 87.500 C 242.694 87.775,242.214 88.000,241.917 88.000 C 241.620 88.000,241.117 88.360,240.800 88.800 C 240.483 89.240,239.975 89.600,239.672 89.600 C 239.369 89.600,238.617 90.140,238.000 90.800 C 237.383 91.460,236.657 92.000,236.386 92.000 C 236.116 92.000,235.603 92.317,235.247 92.703 C 234.891 93.090,233.880 93.894,233.000 94.490 C 231.683 95.381,229.595 97.286,227.000 99.965 C 226.780 100.192,225.835 101.075,224.900 101.927 C 223.965 102.779,223.200 103.684,223.200 103.938 C 223.200 104.192,222.948 104.400,222.641 104.400 C 222.334 104.400,220.701 105.750,219.013 107.400 C 214.679 111.637,214.904 111.688,208.107 104.899 C 201.754 98.554,197.689 94.878,196.108 94.051 C 195.499 93.731,194.523 92.959,193.940 92.335 C 193.356 91.711,192.635 91.200,192.336 91.200 C 192.037 91.200,191.568 90.840,191.293 90.400 C 191.018 89.960,190.564 89.600,190.285 89.600 C 190.005 89.600,189.517 89.240,189.200 88.800 C 188.883 88.360,188.343 88.000,188.000 88.000 C 187.657 88.000,187.117 87.640,186.800 87.200 C 186.483 86.760,185.903 86.400,185.512 86.400 C 185.120 86.400,184.800 86.241,184.800 86.047 C 184.800 85.852,184.485 85.593,184.100 85.471 C 183.164 85.175,181.034 83.876,180.867 83.500 C 180.793 83.335,180.388 83.200,179.967 83.200 C 179.545 83.200,179.200 83.020,179.200 82.800 C 179.200 82.580,178.840 82.400,178.400 82.400 C 177.960 82.400,177.600 82.220,177.600 82.000 C 177.600 81.780,177.255 81.600,176.833 81.600 C 176.412 81.600,176.007 81.456,175.933 81.280 C 175.783 80.919,170.656 78.400,170.071 78.400 C 169.862 78.400,169.176 78.131,168.546 77.802 C 167.916 77.474,166.905 77.204,166.300 77.202 C 165.695 77.201,165.200 77.020,165.200 76.800 C 165.200 76.580,164.660 76.400,164.000 76.400 C 163.340 76.400,162.800 76.220,162.800 76.000 C 162.800 75.780,162.260 75.600,161.600 75.600 C 160.940 75.600,160.400 75.420,160.400 75.200 C 160.400 74.980,159.860 74.800,159.200 74.800 C 158.540 74.800,158.000 74.620,158.000 74.400 C 158.000 74.180,157.280 74.000,156.400 74.000 C 155.520 74.000,154.800 73.820,154.800 73.600 C 154.800 73.380,154.001 73.200,153.024 73.200 C 152.047 73.200,151.136 73.020,151.000 72.800 C 150.864 72.580,149.784 72.400,148.600 72.400 C 147.416 72.400,146.336 72.220,146.200 72.000 C 146.058 71.771,143.996 71.600,141.376 71.600 C 138.592 71.600,136.800 71.443,136.800 71.200 C 136.800 70.971,135.600 70.800,134.000 70.800 C 132.400 70.800,131.200 70.971,131.200 71.200 M219.596 150.112 C 220.617 150.827,221.465 151.966,222.641 154.200 C 223.772 156.348,225.696 159.882,226.670 161.600 C 227.107 162.370,228.244 164.440,229.197 166.200 C 230.149 167.960,231.822 171.020,232.914 173.000 C 234.934 176.665,236.062 178.720,238.400 183.000 C 239.866 185.684,241.101 187.915,242.275 190.000 C 243.301 191.821,245.872 196.517,249.394 203.000 C 250.947 205.860,252.394 208.169,252.609 208.130 C 252.947 208.070,258.400 199.396,258.400 198.919 C 258.400 198.823,258.940 197.959,259.600 197.000 C 260.260 196.041,260.800 195.063,260.800 194.828 C 260.800 194.593,260.959 194.400,261.153 194.400 C 261.348 194.400,261.613 194.085,261.742 193.700 C 261.994 192.953,262.032 192.887,266.001 186.264 C 270.309 179.077,267.722 179.600,298.933 179.600 C 324.081 179.600,324.579 179.615,326.271 180.434 C 330.387 182.427,331.110 187.192,327.786 190.414 L 326.356 191.800 301.829 191.912 C 279.204 192.015,277.258 192.077,276.720 192.712 C 276.168 193.365,270.583 202.713,268.184 207.000 C 265.040 212.619,257.763 224.717,257.034 225.538 C 253.700 229.288,248.676 228.036,245.851 222.750 C 245.219 221.568,244.246 219.790,243.690 218.800 C 243.133 217.810,242.191 216.100,241.597 215.000 C 240.292 212.587,238.890 210.030,234.685 202.400 C 232.928 199.210,230.860 195.430,230.090 194.000 C 228.544 191.128,227.000 188.292,225.245 185.100 C 224.610 183.945,222.507 180.120,220.572 176.600 C 218.637 173.080,216.862 169.796,216.627 169.303 C 215.940 167.859,215.521 168.374,211.512 175.600 C 210.963 176.590,210.128 178.075,209.657 178.900 C 207.554 182.582,207.156 183.276,206.443 184.500 C 205.786 185.628,196.134 202.486,193.904 206.400 C 191.374 210.841,187.998 212.436,184.674 210.759 C 183.727 210.282,181.200 207.611,181.200 207.087 C 181.200 206.911,181.016 206.549,180.792 206.283 C 180.201 205.584,177.200 200.810,177.200 200.570 C 177.200 200.458,177.015 200.149,176.789 199.883 C 176.563 199.617,175.195 197.510,173.749 195.200 C 172.303 192.890,170.806 190.550,170.422 190.000 C 170.038 189.450,169.421 188.415,169.052 187.700 C 167.985 185.637,167.675 185.973,162.400 194.912 C 159.650 199.572,156.718 204.064,155.884 204.893 L 154.368 206.400 133.178 206.400 L 111.989 206.400 110.599 205.500 C 106.941 203.132,106.980 197.715,110.672 195.200 L 112.140 194.200 130.237 194.081 L 148.334 193.962 154.244 184.081 C 163.289 168.962,163.456 168.735,166.106 167.989 C 168.654 167.273,173.600 169.476,173.600 171.327 C 173.600 171.482,174.566 173.091,175.747 174.904 C 176.928 176.717,179.469 180.720,181.394 183.800 C 183.319 186.880,185.389 190.180,185.993 191.133 L 187.090 192.867 188.345 190.827 C 189.035 189.706,189.600 188.683,189.600 188.556 C 189.600 188.428,189.933 187.846,190.339 187.262 C 190.745 186.678,191.619 185.210,192.280 184.000 C 192.941 182.790,193.869 181.125,194.341 180.300 C 194.813 179.475,195.579 178.125,196.043 177.300 C 196.506 176.475,197.020 175.620,197.185 175.400 C 197.350 175.180,198.022 174.010,198.679 172.800 C 199.653 171.005,203.924 163.536,208.513 155.600 C 208.959 154.830,209.699 153.506,210.158 152.659 C 212.028 149.205,216.556 147.983,219.596 150.112 " stroke="none" fill="#fc8484" fill-rule="evenodd"></path></g></svg>